<svg width="406" height="260" viewBox="0 0 406 260" fill="none" xmlns="http://www.w3.org/2000/svg">
<rect x="0.5" width="405" height="260" rx="24" fill="#F7F7F7"/>
<rect x="32.5" y="68" width="341" height="124" rx="12" fill="#F7F7F7"/>
<rect x="33.5" y="69" width="339" height="122" rx="18" fill="white"/>
<path d="M52.6186 97V86.8182H54.1548V91.2429H59.2308V86.8182H60.772V97H59.2308V92.5604H54.1548V97H52.6186ZM65.7865 97.1541C65.0706 97.1541 64.4459 96.9901 63.9122 96.6619C63.3786 96.3338 62.9643 95.8748 62.6693 95.2848C62.3744 94.6948 62.2269 94.0054 62.2269 93.2166C62.2269 92.4245 62.3744 91.7318 62.6693 91.1385C62.9643 90.5452 63.3786 90.0845 63.9122 89.7564C64.4459 89.4283 65.0706 89.2642 65.7865 89.2642C66.5024 89.2642 67.1272 89.4283 67.6608 89.7564C68.1944 90.0845 68.6087 90.5452 68.9037 91.1385C69.1987 91.7318 69.3462 92.4245 69.3462 93.2166C69.3462 94.0054 69.1987 94.6948 68.9037 95.2848C68.6087 95.8748 68.1944 96.3338 67.6608 96.6619C67.1272 96.9901 66.5024 97.1541 65.7865 97.1541ZM65.7915 95.9062C66.2555 95.9062 66.64 95.7836 66.9449 95.5384C67.2498 95.2931 67.4752 94.9666 67.6211 94.5589C67.7702 94.1513 67.8448 93.7022 67.8448 93.2116C67.8448 92.7244 67.7702 92.277 67.6211 91.8693C67.4752 91.4583 67.2498 91.1286 66.9449 90.88C66.64 90.6314 66.2555 90.5071 65.7915 90.5071C65.3242 90.5071 64.9364 90.6314 64.6282 90.88C64.3232 91.1286 64.0962 91.4583 63.947 91.8693C63.8012 92.277 63.7283 92.7244 63.7283 93.2116C63.7283 93.7022 63.8012 94.1513 63.947 94.5589C64.0962 94.9666 64.3232 95.2931 64.6282 95.5384C64.9364 95.7836 65.3242 95.9062 65.7915 95.9062ZM72.1086 97L69.8614 89.3636H71.3976L72.8941 94.9716H72.9687L74.4701 89.3636H76.0063L77.4978 94.9467H77.5724L79.0589 89.3636H80.5951L78.3529 97H76.8366L75.2854 91.4865H75.1711L73.6199 97H72.1086Z" fill="black"/>
<path d="M88.858 97.1491C88.2415 97.1491 87.6913 96.9917 87.2074 96.6768C86.7268 96.3587 86.349 95.9062 86.0739 95.3196C85.8021 94.7296 85.6662 94.022 85.6662 93.1967C85.6662 92.3714 85.8037 91.6655 86.0788 91.0788C86.3572 90.4922 86.7384 90.0431 87.2223 89.7315C87.7062 89.42 88.2547 89.2642 88.8679 89.2642C89.3419 89.2642 89.723 89.3438 90.0114 89.5028C90.303 89.6586 90.5284 89.8409 90.6875 90.0497C90.8499 90.2585 90.9759 90.4425 91.0653 90.6016H91.1548V86.8182H92.6413V97H91.1896V95.8118H91.0653C90.9759 95.9742 90.8466 96.1598 90.6776 96.3686C90.5118 96.5774 90.2831 96.7597 89.9915 96.9155C89.6998 97.0713 89.322 97.1491 88.858 97.1491ZM89.1861 95.8814C89.6136 95.8814 89.9749 95.7687 90.2699 95.5433C90.5682 95.3146 90.7936 94.9981 90.946 94.5938C91.1018 94.1894 91.1797 93.7187 91.1797 93.1818C91.1797 92.6515 91.1035 92.1875 90.951 91.7898C90.7985 91.392 90.5748 91.0821 90.2798 90.8601C89.9848 90.638 89.6203 90.527 89.1861 90.527C88.7386 90.527 88.3658 90.643 88.0675 90.875C87.7692 91.107 87.5438 91.4235 87.3913 91.8246C87.2422 92.2256 87.1676 92.678 87.1676 93.1818C87.1676 93.6922 87.2438 94.1513 87.3963 94.5589C87.5488 94.9666 87.7741 95.2898 88.0724 95.5284C88.3741 95.7637 88.7453 95.8814 89.1861 95.8814ZM97.6596 97.1541C96.9437 97.1541 96.3189 96.9901 95.7853 96.6619C95.2517 96.3338 94.8374 95.8748 94.5424 95.2848C94.2474 94.6948 94.0999 94.0054 94.0999 93.2166C94.0999 92.4245 94.2474 91.7318 94.5424 91.1385C94.8374 90.5452 95.2517 90.0845 95.7853 89.7564C96.3189 89.4283 96.9437 89.2642 97.6596 89.2642C98.3755 89.2642 99.0003 89.4283 99.5339 89.7564C100.067 90.0845 100.482 90.5452 100.777 91.1385C101.072 91.7318 101.219 92.4245 101.219 93.2166C101.219 94.0054 101.072 94.6948 100.777 95.2848C100.482 95.8748 100.067 96.3338 99.5339 96.6619C99.0003 96.9901 98.3755 97.1541 97.6596 97.1541ZM97.6646 95.9062C98.1286 95.9062 98.513 95.7836 98.818 95.5384C99.1229 95.2931 99.3483 94.9666 99.4941 94.5589C99.6432 94.1513 99.7178 93.7022 99.7178 93.2116C99.7178 92.7244 99.6432 92.277 99.4941 91.8693C99.3483 91.4583 99.1229 91.1286 98.818 90.88C98.513 90.6314 98.1286 90.5071 97.6646 90.5071C97.1972 90.5071 96.8094 90.6314 96.5012 90.88C96.1963 91.1286 95.9692 91.4583 95.8201 91.8693C95.6743 92.277 95.6013 92.7244 95.6013 93.2116C95.6013 93.7022 95.6743 94.1513 95.8201 94.5589C95.9692 94.9666 96.1963 95.2931 96.5012 95.5384C96.8094 95.7836 97.1972 95.9062 97.6646 95.9062ZM105.85 97.1541C105.097 97.1541 104.449 96.9934 103.906 96.6719C103.366 96.3471 102.948 95.8913 102.653 95.3047C102.361 94.7147 102.215 94.0237 102.215 93.2315C102.215 92.4493 102.361 91.7599 102.653 91.1634C102.948 90.5668 103.359 90.1011 103.886 89.7663C104.416 89.4316 105.036 89.2642 105.745 89.2642C106.176 89.2642 106.594 89.3355 106.998 89.478C107.402 89.6205 107.765 89.8442 108.087 90.1491C108.408 90.4541 108.662 90.8501 108.848 91.3374C109.033 91.8213 109.126 92.4096 109.126 93.1023V93.6293H103.056V92.5156H107.669C107.669 92.1245 107.59 91.7782 107.431 91.4766C107.272 91.1716 107.048 90.9313 106.76 90.7557C106.474 90.58 106.14 90.4922 105.755 90.4922C105.338 90.4922 104.973 90.5949 104.661 90.8004C104.353 91.0026 104.115 91.2678 103.946 91.5959C103.78 91.9207 103.697 92.2737 103.697 92.6548V93.5249C103.697 94.0353 103.786 94.4695 103.965 94.8274C104.148 95.1854 104.401 95.4588 104.726 95.6477C105.051 95.8333 105.43 95.9261 105.865 95.9261C106.146 95.9261 106.403 95.8864 106.635 95.8068C106.867 95.724 107.068 95.6013 107.237 95.4389C107.406 95.2765 107.535 95.076 107.625 94.8374L109.032 95.0909C108.919 95.5052 108.717 95.8681 108.425 96.1797C108.137 96.4879 107.774 96.7282 107.336 96.9006C106.902 97.0696 106.407 97.1541 105.85 97.1541ZM116.178 91.228L114.83 91.4666C114.774 91.2943 114.684 91.1302 114.562 90.9744C114.443 90.8187 114.28 90.6911 114.075 90.5916C113.869 90.4922 113.612 90.4425 113.304 90.4425C112.883 90.4425 112.532 90.5369 112.25 90.7259C111.968 90.9115 111.827 91.1518 111.827 91.4467C111.827 91.7019 111.922 91.9074 112.111 92.0632C112.3 92.219 112.605 92.3466 113.026 92.446L114.239 92.7244C114.941 92.8868 115.465 93.1371 115.81 93.4751C116.154 93.8132 116.327 94.2524 116.327 94.7926C116.327 95.25 116.194 95.6577 115.929 96.0156C115.667 96.3703 115.301 96.6487 114.83 96.8509C114.363 97.053 113.821 97.1541 113.205 97.1541C112.349 97.1541 111.652 96.9718 111.112 96.6072C110.571 96.2393 110.24 95.7173 110.117 95.0412L111.554 94.8224C111.644 95.197 111.827 95.4804 112.106 95.6726C112.384 95.8615 112.747 95.956 113.195 95.956C113.682 95.956 114.071 95.8549 114.363 95.6527C114.655 95.4472 114.8 95.197 114.8 94.902C114.8 94.6634 114.711 94.4628 114.532 94.3004C114.356 94.138 114.086 94.0154 113.722 93.9325L112.429 93.6491C111.716 93.4867 111.189 93.2282 110.848 92.8736C110.51 92.5189 110.341 92.0698 110.341 91.5263C110.341 91.0755 110.467 90.6811 110.719 90.343C110.971 90.005 111.319 89.7415 111.763 89.5526C112.207 89.3603 112.716 89.2642 113.289 89.2642C114.114 89.2642 114.764 89.4432 115.238 89.8011C115.712 90.1558 116.025 90.6314 116.178 91.228Z" fill="black"/>
<path d="M125.064 89.3636V90.5568H120.893V89.3636H125.064ZM122.011 87.5341H123.498V94.7578C123.498 95.0462 123.541 95.2633 123.627 95.4091C123.713 95.5516 123.824 95.6494 123.96 95.7024C124.099 95.7521 124.25 95.777 124.413 95.777C124.532 95.777 124.636 95.7687 124.726 95.7521C124.815 95.7356 124.885 95.7223 124.935 95.7124L125.203 96.9403C125.117 96.9735 124.994 97.0066 124.835 97.0398C124.676 97.0762 124.477 97.0961 124.239 97.0994C123.848 97.1061 123.483 97.0365 123.145 96.8906C122.807 96.7448 122.533 96.5194 122.325 96.2145C122.116 95.9096 122.011 95.5268 122.011 95.0661V87.5341ZM128.039 92.4659V97H126.552V86.8182H128.019V90.6065H128.113C128.292 90.1955 128.566 89.8691 128.934 89.6271C129.302 89.3852 129.782 89.2642 130.375 89.2642C130.899 89.2642 131.357 89.3719 131.748 89.5874C132.142 89.8028 132.447 90.1243 132.662 90.5518C132.881 90.9761 132.991 91.5064 132.991 92.1428V97H131.504V92.3217C131.504 91.7616 131.36 91.3274 131.072 91.0192C130.783 90.7076 130.382 90.5518 129.868 90.5518C129.517 90.5518 129.202 90.6264 128.924 90.7756C128.649 90.9247 128.432 91.1435 128.273 91.4318C128.117 91.7169 128.039 92.0616 128.039 92.4659ZM134.654 97V89.3636H136.141V97H134.654ZM135.405 88.1854C135.146 88.1854 134.924 88.0992 134.739 87.9268C134.556 87.7512 134.465 87.5424 134.465 87.3004C134.465 87.0552 134.556 86.8464 134.739 86.674C134.924 86.4983 135.146 86.4105 135.405 86.4105C135.663 86.4105 135.884 86.4983 136.066 86.674C136.252 86.8464 136.345 87.0552 136.345 87.3004C136.345 87.5424 136.252 87.7512 136.066 87.9268C135.884 88.0992 135.663 88.1854 135.405 88.1854ZM143.543 91.228L142.196 91.4666C142.139 91.2943 142.05 91.1302 141.927 90.9744C141.808 90.8187 141.645 90.6911 141.44 90.5916C141.234 90.4922 140.978 90.4425 140.669 90.4425C140.248 90.4425 139.897 90.5369 139.615 90.7259C139.334 90.9115 139.193 91.1518 139.193 91.4467C139.193 91.7019 139.287 91.9074 139.476 92.0632C139.665 92.219 139.97 92.3466 140.391 92.446L141.604 92.7244C142.307 92.8868 142.83 93.1371 143.175 93.4751C143.52 93.8132 143.692 94.2524 143.692 94.7926C143.692 95.25 143.559 95.6577 143.294 96.0156C143.032 96.3703 142.666 96.6487 142.196 96.8509C141.728 97.053 141.186 97.1541 140.57 97.1541C139.715 97.1541 139.017 96.9718 138.477 96.6072C137.937 96.2393 137.605 95.7173 137.482 95.0412L138.919 94.8224C139.009 95.197 139.193 95.4804 139.471 95.6726C139.75 95.8615 140.112 95.956 140.56 95.956C141.047 95.956 141.437 95.8549 141.728 95.6527C142.02 95.4472 142.166 95.197 142.166 94.902C142.166 94.6634 142.076 94.4628 141.897 94.3004C141.722 94.138 141.451 94.0154 141.087 93.9325L139.794 93.6491C139.082 93.4867 138.555 93.2282 138.213 92.8736C137.875 92.5189 137.706 92.0698 137.706 91.5263C137.706 91.0755 137.832 90.6811 138.084 90.343C138.336 90.005 138.684 89.7415 139.128 89.5526C139.572 89.3603 140.081 89.2642 140.654 89.2642C141.48 89.2642 142.129 89.4432 142.603 89.8011C143.077 90.1558 143.39 90.6314 143.543 91.228Z" fill="black"/>
<path d="M151.222 97.169C150.738 97.169 150.3 97.0795 149.909 96.9006C149.518 96.7183 149.208 96.4548 148.979 96.1101C148.754 95.7654 148.641 95.3428 148.641 94.8423C148.641 94.4115 148.724 94.0568 148.89 93.7784C149.056 93.5 149.279 93.2796 149.561 93.1172C149.843 92.9548 150.158 92.8321 150.506 92.7493C150.854 92.6664 151.208 92.6035 151.57 92.5604C152.027 92.5073 152.398 92.4643 152.683 92.4311C152.968 92.3946 153.175 92.3366 153.305 92.2571C153.434 92.1776 153.499 92.0483 153.499 91.8693V91.8345C153.499 91.4003 153.376 91.0639 153.131 90.8253C152.889 90.5866 152.527 90.4673 152.047 90.4673C151.546 90.4673 151.152 90.5784 150.864 90.8004C150.579 91.0192 150.381 91.2628 150.272 91.5312L148.875 91.2131C149.041 90.7491 149.283 90.3745 149.601 90.0895C149.922 89.8011 150.292 89.5923 150.71 89.4631C151.127 89.3305 151.566 89.2642 152.027 89.2642C152.332 89.2642 152.655 89.3007 152.996 89.3736C153.341 89.4432 153.663 89.5724 153.961 89.7614C154.263 89.9503 154.509 90.2204 154.702 90.5717C154.894 90.9197 154.99 91.3722 154.99 91.929V97H153.538V95.956H153.479C153.383 96.1482 153.238 96.3371 153.046 96.5227C152.854 96.7083 152.607 96.8625 152.305 96.9851C152.004 97.1077 151.643 97.169 151.222 97.169ZM151.545 95.9759C151.956 95.9759 152.307 95.8946 152.599 95.7322C152.894 95.5698 153.117 95.3577 153.27 95.0959C153.426 94.8307 153.504 94.5473 153.504 94.2457V93.2614C153.451 93.3144 153.348 93.3641 153.195 93.4105C153.046 93.4536 152.875 93.4917 152.683 93.5249C152.491 93.5547 152.304 93.5829 152.121 93.6094C151.939 93.6326 151.787 93.6525 151.664 93.669C151.376 93.7055 151.112 93.7668 150.874 93.853C150.638 93.9392 150.449 94.0634 150.307 94.2259C150.168 94.3849 150.098 94.5971 150.098 94.8622C150.098 95.2301 150.234 95.5085 150.506 95.6974C150.777 95.883 151.124 95.9759 151.545 95.9759ZM156.65 97V89.3636H158.087V90.5767H158.166C158.306 90.1657 158.551 89.8426 158.902 89.6072C159.257 89.3686 159.658 89.2493 160.105 89.2493C160.198 89.2493 160.307 89.2526 160.433 89.2592C160.563 89.2659 160.664 89.2741 160.737 89.2841V90.706C160.677 90.6894 160.571 90.6712 160.418 90.6513C160.266 90.6281 160.114 90.6165 159.961 90.6165C159.61 90.6165 159.297 90.6911 159.021 90.8402C158.75 90.986 158.534 91.1899 158.375 91.4517C158.216 91.7102 158.136 92.0052 158.136 92.3366V97H156.65ZM164.646 97.1541C163.907 97.1541 163.271 96.9867 162.737 96.652C162.207 96.3139 161.799 95.8482 161.514 95.255C161.229 94.6617 161.087 93.9822 161.087 93.2166C161.087 92.4411 161.232 91.7566 161.524 91.1634C161.816 90.5668 162.227 90.1011 162.757 89.7663C163.287 89.4316 163.912 89.2642 164.631 89.2642C165.211 89.2642 165.728 89.3719 166.182 89.5874C166.637 89.7995 167.003 90.0978 167.281 90.4822C167.563 90.8667 167.73 91.3158 167.783 91.8295H166.337C166.257 91.4716 166.075 91.1634 165.79 90.9048C165.508 90.6463 165.13 90.517 164.656 90.517C164.242 90.517 163.879 90.6264 163.567 90.8452C163.259 91.0606 163.019 91.3688 162.847 91.7699C162.674 92.1676 162.588 92.6383 162.588 93.1818C162.588 93.7386 162.672 94.2192 162.842 94.6236C163.011 95.0279 163.249 95.3411 163.557 95.5632C163.869 95.7853 164.235 95.8963 164.656 95.8963C164.938 95.8963 165.193 95.8449 165.422 95.7422C165.654 95.6361 165.848 95.4853 166.003 95.2898C166.163 95.0942 166.274 94.8589 166.337 94.5838H167.783C167.73 95.0777 167.57 95.5185 167.301 95.9062C167.033 96.294 166.673 96.599 166.222 96.821C165.775 97.0431 165.249 97.1541 164.646 97.1541ZM170.539 92.4659V97H169.053V86.8182H170.52V90.6065H170.614C170.793 90.1955 171.066 89.8691 171.434 89.6271C171.802 89.3852 172.283 89.2642 172.876 89.2642C173.4 89.2642 173.857 89.3719 174.248 89.5874C174.643 89.8028 174.948 90.1243 175.163 90.5518C175.382 90.9761 175.491 91.5064 175.491 92.1428V97H174.005V92.3217C174.005 91.7616 173.86 91.3274 173.572 91.0192C173.284 90.7076 172.883 90.5518 172.369 90.5518C172.018 90.5518 171.703 90.6264 171.424 90.7756C171.149 90.9247 170.932 91.1435 170.773 91.4318C170.617 91.7169 170.539 92.0616 170.539 92.4659ZM177.155 97V89.3636H178.641V97H177.155ZM177.906 88.1854C177.647 88.1854 177.425 88.0992 177.239 87.9268C177.057 87.7512 176.966 87.5424 176.966 87.3004C176.966 87.0552 177.057 86.8464 177.239 86.674C177.425 86.4983 177.647 86.4105 177.906 86.4105C178.164 86.4105 178.384 86.4983 178.567 86.674C178.752 86.8464 178.845 87.0552 178.845 87.3004C178.845 87.5424 178.752 87.7512 178.567 87.9268C178.384 88.0992 178.164 88.1854 177.906 88.1854ZM183.886 89.3636V90.5568H179.715V89.3636H183.886ZM180.833 87.5341H182.32V94.7578C182.32 95.0462 182.363 95.2633 182.449 95.4091C182.535 95.5516 182.646 95.6494 182.782 95.7024C182.921 95.7521 183.072 95.777 183.235 95.777C183.354 95.777 183.458 95.7687 183.548 95.7521C183.637 95.7356 183.707 95.7223 183.757 95.7124L184.025 96.9403C183.939 96.9735 183.816 97.0066 183.657 97.0398C183.498 97.0762 183.299 97.0961 183.061 97.0994C182.669 97.1061 182.305 97.0365 181.967 96.8906C181.629 96.7448 181.355 96.5194 181.146 96.2145C180.938 95.9096 180.833 95.5268 180.833 95.0661V87.5341ZM188.419 97.1541C187.667 97.1541 187.019 96.9934 186.475 96.6719C185.935 96.3471 185.518 95.8913 185.223 95.3047C184.931 94.7147 184.785 94.0237 184.785 93.2315C184.785 92.4493 184.931 91.7599 185.223 91.1634C185.518 90.5668 185.929 90.1011 186.456 89.7663C186.986 89.4316 187.606 89.2642 188.315 89.2642C188.746 89.2642 189.163 89.3355 189.568 89.478C189.972 89.6205 190.335 89.8442 190.657 90.1491C190.978 90.4541 191.232 90.8501 191.417 91.3374C191.603 91.8213 191.696 92.4096 191.696 93.1023V93.6293H185.625V92.5156H190.239C190.239 92.1245 190.159 91.7782 190 91.4766C189.841 91.1716 189.617 90.9313 189.329 90.7557C189.044 90.58 188.709 90.4922 188.325 90.4922C187.907 90.4922 187.543 90.5949 187.231 90.8004C186.923 91.0026 186.684 91.2678 186.515 91.5959C186.349 91.9207 186.267 92.2737 186.267 92.6548V93.5249C186.267 94.0353 186.356 94.4695 186.535 94.8274C186.717 95.1854 186.971 95.4588 187.296 95.6477C187.621 95.8333 188 95.9261 188.434 95.9261C188.716 95.9261 188.973 95.8864 189.205 95.8068C189.437 95.724 189.637 95.6013 189.806 95.4389C189.975 95.2765 190.105 95.076 190.194 94.8374L191.601 95.0909C191.488 95.5052 191.286 95.8681 190.995 96.1797C190.706 96.4879 190.343 96.7282 189.906 96.9006C189.472 97.0696 188.976 97.1541 188.419 97.1541ZM196.242 97.1541C195.502 97.1541 194.866 96.9867 194.332 96.652C193.802 96.3139 193.394 95.8482 193.109 95.255C192.824 94.6617 192.682 93.9822 192.682 93.2166C192.682 92.4411 192.828 91.7566 193.119 91.1634C193.411 90.5668 193.822 90.1011 194.352 89.7663C194.883 89.4316 195.507 89.2642 196.227 89.2642C196.807 89.2642 197.324 89.3719 197.778 89.5874C198.232 89.7995 198.598 90.0978 198.876 90.4822C199.158 90.8667 199.326 91.3158 199.379 91.8295H197.932C197.852 91.4716 197.67 91.1634 197.385 90.9048C197.103 90.6463 196.725 90.517 196.251 90.517C195.837 90.517 195.474 90.6264 195.163 90.8452C194.854 91.0606 194.614 91.3688 194.442 91.7699C194.269 92.1676 194.183 92.6383 194.183 93.1818C194.183 93.7386 194.268 94.2192 194.437 94.6236C194.606 95.0279 194.845 95.3411 195.153 95.5632C195.464 95.7853 195.831 95.8963 196.251 95.8963C196.533 95.8963 196.788 95.8449 197.017 95.7422C197.249 95.6361 197.443 95.4853 197.599 95.2898C197.758 95.0942 197.869 94.8589 197.932 94.5838H199.379C199.326 95.0777 199.165 95.5185 198.896 95.9062C198.628 96.294 198.268 96.599 197.818 96.821C197.37 97.0431 196.845 97.1541 196.242 97.1541ZM204.213 89.3636V90.5568H200.042V89.3636H204.213ZM201.16 87.5341H202.647V94.7578C202.647 95.0462 202.69 95.2633 202.776 95.4091C202.862 95.5516 202.973 95.6494 203.109 95.7024C203.248 95.7521 203.399 95.777 203.562 95.777C203.681 95.777 203.785 95.7687 203.875 95.7521C203.964 95.7356 204.034 95.7223 204.084 95.7124L204.352 96.9403C204.266 96.9735 204.143 97.0066 203.984 97.0398C203.825 97.0762 203.626 97.0961 203.388 97.0994C202.997 97.1061 202.632 97.0365 202.294 96.8906C201.956 96.7448 201.682 96.5194 201.474 96.2145C201.265 95.9096 201.16 95.5268 201.16 95.0661V87.5341ZM210.375 93.8331V89.3636H211.866V97H210.404V95.6776H210.325C210.149 96.0852 209.868 96.425 209.48 96.6967C209.095 96.9652 208.616 97.0994 208.043 97.0994C207.552 97.0994 207.118 96.9917 206.74 96.7763C206.366 96.5575 206.071 96.2344 205.855 95.8068C205.643 95.3793 205.537 94.8506 205.537 94.2209V89.3636H207.024V94.0419C207.024 94.5623 207.168 94.9766 207.456 95.2848C207.745 95.593 208.119 95.7472 208.58 95.7472C208.858 95.7472 209.135 95.6776 209.41 95.5384C209.689 95.3991 209.919 95.1887 210.101 94.907C210.287 94.6252 210.378 94.2673 210.375 93.8331ZM213.543 97V89.3636H214.98V90.5767H215.06C215.199 90.1657 215.444 89.8426 215.796 89.6072C216.15 89.3686 216.551 89.2493 216.999 89.2493C217.091 89.2493 217.201 89.2526 217.327 89.2592C217.456 89.2659 217.557 89.2741 217.63 89.2841V90.706C217.57 90.6894 217.464 90.6712 217.312 90.6513C217.159 90.6281 217.007 90.6165 216.855 90.6165C216.503 90.6165 216.19 90.6911 215.915 90.8402C215.643 90.986 215.428 91.1899 215.269 91.4517C215.109 91.7102 215.03 92.0052 215.03 92.3366V97H213.543ZM221.614 97.1541C220.862 97.1541 220.214 96.9934 219.67 96.6719C219.13 96.3471 218.712 95.8913 218.418 95.3047C218.126 94.7147 217.98 94.0237 217.98 93.2315C217.98 92.4493 218.126 91.7599 218.418 91.1634C218.712 90.5668 219.123 90.1011 219.65 89.7663C220.181 89.4316 220.801 89.2642 221.51 89.2642C221.941 89.2642 222.358 89.3355 222.763 89.478C223.167 89.6205 223.53 89.8442 223.851 90.1491C224.173 90.4541 224.426 90.8501 224.612 91.3374C224.798 91.8213 224.891 92.4096 224.891 93.1023V93.6293H218.82V92.5156H223.434C223.434 92.1245 223.354 91.7782 223.195 91.4766C223.036 91.1716 222.812 90.9313 222.524 90.7557C222.239 90.58 221.904 90.4922 221.52 90.4922C221.102 90.4922 220.738 90.5949 220.426 90.8004C220.118 91.0026 219.879 91.2678 219.71 91.5959C219.544 91.9207 219.462 92.2737 219.462 92.6548V93.5249C219.462 94.0353 219.551 94.4695 219.73 94.8274C219.912 95.1854 220.166 95.4588 220.491 95.6477C220.815 95.8333 221.195 95.9261 221.629 95.9261C221.911 95.9261 222.168 95.8864 222.4 95.8068C222.632 95.724 222.832 95.6013 223.001 95.4389C223.17 95.2765 223.3 95.076 223.389 94.8374L224.796 95.0909C224.683 95.5052 224.481 95.8681 224.19 96.1797C223.901 96.4879 223.538 96.7282 223.101 96.9006C222.667 97.0696 222.171 97.1541 221.614 97.1541Z" fill="black"/>
<path d="M233.358 97.1491C232.741 97.1491 232.191 96.9917 231.707 96.6768C231.227 96.3587 230.849 95.9062 230.574 95.3196C230.302 94.7296 230.166 94.022 230.166 93.1967C230.166 92.3714 230.304 91.6655 230.579 91.0788C230.857 90.4922 231.238 90.0431 231.722 89.7315C232.206 89.42 232.755 89.2642 233.368 89.2642C233.842 89.2642 234.223 89.3438 234.511 89.5028C234.803 89.6586 235.028 89.8409 235.188 90.0497C235.35 90.2585 235.476 90.4425 235.565 90.6016H235.655V86.8182H237.141V97H235.69V95.8118H235.565C235.476 95.9742 235.347 96.1598 235.178 96.3686C235.012 96.5774 234.783 96.7597 234.491 96.9155C234.2 97.0713 233.822 97.1491 233.358 97.1491ZM233.686 95.8814C234.114 95.8814 234.475 95.7687 234.77 95.5433C235.068 95.3146 235.294 94.9981 235.446 94.5938C235.602 94.1894 235.68 93.7187 235.68 93.1818C235.68 92.6515 235.603 92.1875 235.451 91.7898C235.299 91.392 235.075 91.0821 234.78 90.8601C234.485 90.638 234.12 90.527 233.686 90.527C233.239 90.527 232.866 90.643 232.567 90.875C232.269 91.107 232.044 91.4235 231.891 91.8246C231.742 92.2256 231.668 92.678 231.668 93.1818C231.668 93.6922 231.744 94.1513 231.896 94.5589C232.049 94.9666 232.274 95.2898 232.572 95.5284C232.874 95.7637 233.245 95.8814 233.686 95.8814ZM238.943 97V89.3636H240.429V97H238.943ZM239.694 88.1854C239.435 88.1854 239.213 88.0992 239.027 87.9268C238.845 87.7512 238.754 87.5424 238.754 87.3004C238.754 87.0552 238.845 86.8464 239.027 86.674C239.213 86.4983 239.435 86.4105 239.694 86.4105C239.952 86.4105 240.173 86.4983 240.355 86.674C240.54 86.8464 240.633 87.0552 240.633 87.3004C240.633 87.5424 240.54 87.7512 240.355 87.9268C240.173 88.0992 239.952 88.1854 239.694 88.1854ZM245.744 89.3636V90.5568H241.428V89.3636H245.744ZM242.611 97V88.4787C242.611 88.0014 242.716 87.6053 242.925 87.2905C243.133 86.9723 243.41 86.7353 243.755 86.5795C244.1 86.4205 244.474 86.3409 244.878 86.3409C245.177 86.3409 245.432 86.3658 245.644 86.4155C245.856 86.4619 246.014 86.505 246.116 86.5447L245.768 87.7479C245.699 87.728 245.609 87.7048 245.5 87.6783C245.391 87.6484 245.258 87.6335 245.102 87.6335C244.741 87.6335 244.482 87.723 244.327 87.902C244.174 88.081 244.098 88.3395 244.098 88.6776V97H242.611ZM250.591 89.3636V90.5568H246.276V89.3636H250.591ZM247.459 97V88.4787C247.459 88.0014 247.564 87.6053 247.773 87.2905C247.981 86.9723 248.258 86.7353 248.603 86.5795C248.948 86.4205 249.322 86.3409 249.726 86.3409C250.025 86.3409 250.28 86.3658 250.492 86.4155C250.704 86.4619 250.862 86.505 250.964 86.5447L250.616 87.7479C250.547 87.728 250.457 87.7048 250.348 87.6783C250.239 87.6484 250.106 87.6335 249.95 87.6335C249.589 87.6335 249.33 87.723 249.175 87.902C249.022 88.081 248.946 88.3395 248.946 88.6776V97H247.459ZM254.796 97.1541C254.043 97.1541 253.395 96.9934 252.852 96.6719C252.312 96.3471 251.894 95.8913 251.599 95.3047C251.307 94.7147 251.161 94.0237 251.161 93.2315C251.161 92.4493 251.307 91.7599 251.599 91.1634C251.894 90.5668 252.305 90.1011 252.832 89.7663C253.362 89.4316 253.982 89.2642 254.691 89.2642C255.122 89.2642 255.54 89.3355 255.944 89.478C256.348 89.6205 256.711 89.8442 257.033 90.1491C257.354 90.4541 257.608 90.8501 257.794 91.3374C257.979 91.8213 258.072 92.4096 258.072 93.1023V93.6293H252.002V92.5156H256.615C256.615 92.1245 256.536 91.7782 256.377 91.4766C256.218 91.1716 255.994 90.9313 255.705 90.7557C255.42 90.58 255.086 90.4922 254.701 90.4922C254.284 90.4922 253.919 90.5949 253.607 90.8004C253.299 91.0026 253.061 91.2678 252.892 91.5959C252.726 91.9207 252.643 92.2737 252.643 92.6548V93.5249C252.643 94.0353 252.732 94.4695 252.911 94.8274C253.094 95.1854 253.347 95.4588 253.672 95.6477C253.997 95.8333 254.376 95.9261 254.811 95.9261C255.092 95.9261 255.349 95.8864 255.581 95.8068C255.813 95.724 256.014 95.6013 256.183 95.4389C256.352 95.2765 256.481 95.076 256.57 94.8374L257.977 95.0909C257.865 95.5052 257.663 95.8681 257.371 96.1797C257.083 96.4879 256.72 96.7282 256.282 96.9006C255.848 97.0696 255.352 97.1541 254.796 97.1541ZM259.401 97V89.3636H260.838V90.5767H260.918C261.057 90.1657 261.302 89.8426 261.653 89.6072C262.008 89.3686 262.409 89.2493 262.856 89.2493C262.949 89.2493 263.059 89.2526 263.185 89.2592C263.314 89.2659 263.415 89.2741 263.488 89.2841V90.706C263.428 90.6894 263.322 90.6712 263.17 90.6513C263.017 90.6281 262.865 90.6165 262.712 90.6165C262.361 90.6165 262.048 90.6911 261.773 90.8402C261.501 90.986 261.285 91.1899 261.126 91.4517C260.967 91.7102 260.888 92.0052 260.888 92.3366V97H259.401Z" fill="black"/>
<path d="M272.634 89.3636V90.5568H268.318V89.3636H272.634ZM269.501 97V88.4787C269.501 88.0014 269.606 87.6053 269.815 87.2905C270.023 86.9723 270.3 86.7353 270.645 86.5795C270.99 86.4205 271.364 86.3409 271.768 86.3409C272.067 86.3409 272.322 86.3658 272.534 86.4155C272.746 86.4619 272.904 86.505 273.006 86.5447L272.658 87.7479C272.589 87.728 272.499 87.7048 272.39 87.6783C272.281 87.6484 272.148 87.6335 271.992 87.6335C271.631 87.6335 271.372 87.723 271.217 87.902C271.064 88.081 270.988 88.3395 270.988 88.6776V97H269.501ZM273.847 97V89.3636H275.284V90.5767H275.364C275.503 90.1657 275.748 89.8426 276.099 89.6072C276.454 89.3686 276.855 89.2493 277.303 89.2493C277.395 89.2493 277.505 89.2526 277.631 89.2592C277.76 89.2659 277.861 89.2741 277.934 89.2841V90.706C277.874 90.6894 277.768 90.6712 277.616 90.6513C277.463 90.6281 277.311 90.6165 277.158 90.6165C276.807 90.6165 276.494 90.6911 276.219 90.8402C275.947 90.986 275.731 91.1899 275.572 91.4517C275.413 91.7102 275.334 92.0052 275.334 92.3366V97H273.847ZM281.843 97.1541C281.128 97.1541 280.503 96.9901 279.969 96.6619C279.436 96.3338 279.021 95.8748 278.726 95.2848C278.431 94.6948 278.284 94.0054 278.284 93.2166C278.284 92.4245 278.431 91.7318 278.726 91.1385C279.021 90.5452 279.436 90.0845 279.969 89.7564C280.503 89.4283 281.128 89.2642 281.843 89.2642C282.559 89.2642 283.184 89.4283 283.718 89.7564C284.251 90.0845 284.666 90.5452 284.961 91.1385C285.256 91.7318 285.403 92.4245 285.403 93.2166C285.403 94.0054 285.256 94.6948 284.961 95.2848C284.666 95.8748 284.251 96.3338 283.718 96.6619C283.184 96.9901 282.559 97.1541 281.843 97.1541ZM281.848 95.9062C282.312 95.9062 282.697 95.7836 283.002 95.5384C283.307 95.2931 283.532 94.9666 283.678 94.5589C283.827 94.1513 283.902 93.7022 283.902 93.2116C283.902 92.7244 283.827 92.277 283.678 91.8693C283.532 91.4583 283.307 91.1286 283.002 90.88C282.697 90.6314 282.312 90.5071 281.848 90.5071C281.381 90.5071 280.993 90.6314 280.685 90.88C280.38 91.1286 280.153 91.4583 280.004 91.8693C279.858 92.277 279.785 92.7244 279.785 93.2116C279.785 93.7022 279.858 94.1513 280.004 94.5589C280.153 94.9666 280.38 95.2931 280.685 95.5384C280.993 95.7836 281.381 95.9062 281.848 95.9062ZM286.742 97V89.3636H288.169V90.6065H288.264C288.423 90.1856 288.683 89.8575 289.044 89.6222C289.406 89.3835 289.838 89.2642 290.342 89.2642C290.852 89.2642 291.28 89.3835 291.625 89.6222C291.973 89.8608 292.229 90.1889 292.395 90.6065H292.475C292.657 90.1989 292.947 89.8741 293.345 89.6321C293.742 89.3868 294.216 89.2642 294.767 89.2642C295.459 89.2642 296.024 89.4813 296.462 89.9155C296.903 90.3497 297.123 91.0043 297.123 91.8793V97H295.637V92.0185C295.637 91.5014 295.496 91.1269 295.214 90.8949C294.932 90.6629 294.596 90.5469 294.205 90.5469C293.721 90.5469 293.345 90.696 293.076 90.9943C292.808 91.2893 292.674 91.6688 292.674 92.1328V97H291.192V91.924C291.192 91.5097 291.063 91.1766 290.804 90.9247C290.546 90.6728 290.209 90.5469 289.795 90.5469C289.513 90.5469 289.253 90.6214 289.014 90.7706C288.779 90.9164 288.589 91.1203 288.443 91.3821C288.3 91.6439 288.229 91.9472 288.229 92.2919V97H286.742Z" fill="black"/>
<path d="M307.064 89.3636V90.5568H302.893V89.3636H307.064ZM304.011 87.5341H305.498V94.7578C305.498 95.0462 305.541 95.2633 305.627 95.4091C305.713 95.5516 305.824 95.6494 305.96 95.7024C306.099 95.7521 306.25 95.777 306.413 95.777C306.532 95.777 306.636 95.7687 306.726 95.7521C306.815 95.7356 306.885 95.7223 306.935 95.7124L307.203 96.9403C307.117 96.9735 306.994 97.0066 306.835 97.0398C306.676 97.0762 306.477 97.0961 306.239 97.0994C305.848 97.1061 305.483 97.0365 305.145 96.8906C304.807 96.7448 304.533 96.5194 304.325 96.2145C304.116 95.9096 304.011 95.5268 304.011 95.0661V87.5341ZM310.039 92.4659V97H308.552V86.8182H310.019V90.6065H310.113C310.292 90.1955 310.566 89.8691 310.934 89.6271C311.302 89.3852 311.782 89.2642 312.375 89.2642C312.899 89.2642 313.357 89.3719 313.748 89.5874C314.142 89.8028 314.447 90.1243 314.662 90.5518C314.881 90.9761 314.991 91.5064 314.991 92.1428V97H313.504V92.3217C313.504 91.7616 313.36 91.3274 313.072 91.0192C312.783 90.7076 312.382 90.5518 311.868 90.5518C311.517 90.5518 311.202 90.6264 310.924 90.7756C310.649 90.9247 310.432 91.1435 310.273 91.4318C310.117 91.7169 310.039 92.0616 310.039 92.4659ZM319.945 97.1541C319.193 97.1541 318.545 96.9934 318.002 96.6719C317.461 96.3471 317.044 95.8913 316.749 95.3047C316.457 94.7147 316.311 94.0237 316.311 93.2315C316.311 92.4493 316.457 91.7599 316.749 91.1634C317.044 90.5668 317.455 90.1011 317.982 89.7663C318.512 89.4316 319.132 89.2642 319.841 89.2642C320.272 89.2642 320.689 89.3355 321.094 89.478C321.498 89.6205 321.861 89.8442 322.183 90.1491C322.504 90.4541 322.758 90.8501 322.943 91.3374C323.129 91.8213 323.222 92.4096 323.222 93.1023V93.6293H317.151V92.5156H321.765C321.765 92.1245 321.685 91.7782 321.526 91.4766C321.367 91.1716 321.144 90.9313 320.855 90.7557C320.57 90.58 320.235 90.4922 319.851 90.4922C319.433 90.4922 319.069 90.5949 318.757 90.8004C318.449 91.0026 318.21 91.2678 318.041 91.5959C317.876 91.9207 317.793 92.2737 317.793 92.6548V93.5249C317.793 94.0353 317.882 94.4695 318.061 94.8274C318.243 95.1854 318.497 95.4588 318.822 95.6477C319.147 95.8333 319.526 95.9261 319.96 95.9261C320.242 95.9261 320.499 95.8864 320.731 95.8068C320.963 95.724 321.163 95.6013 321.332 95.4389C321.502 95.2765 321.631 95.076 321.72 94.8374L323.127 95.0909C323.015 95.5052 322.812 95.8681 322.521 96.1797C322.232 96.4879 321.869 96.7282 321.432 96.9006C320.998 97.0696 320.502 97.1541 319.945 97.1541Z" fill="black"/>
<path d="M332.216 97.1541C331.5 97.1541 330.875 96.9901 330.342 96.6619C329.808 96.3338 329.394 95.8748 329.099 95.2848C328.804 94.6948 328.656 94.0054 328.656 93.2166C328.656 92.4245 328.804 91.7318 329.099 91.1385C329.394 90.5452 329.808 90.0845 330.342 89.7564C330.875 89.4283 331.5 89.2642 332.216 89.2642C332.932 89.2642 333.557 89.4283 334.09 89.7564C334.624 90.0845 335.038 90.5452 335.333 91.1385C335.628 91.7318 335.776 92.4245 335.776 93.2166C335.776 94.0054 335.628 94.6948 335.333 95.2848C335.038 95.8748 334.624 96.3338 334.09 96.6619C333.557 96.9901 332.932 97.1541 332.216 97.1541ZM332.221 95.9062C332.685 95.9062 333.069 95.7836 333.374 95.5384C333.679 95.2931 333.905 94.9666 334.05 94.5589C334.2 94.1513 334.274 93.7022 334.274 93.2116C334.274 92.7244 334.2 92.277 334.05 91.8693C333.905 91.4583 333.679 91.1286 333.374 90.88C333.069 90.6314 332.685 90.5071 332.221 90.5071C331.754 90.5071 331.366 90.6314 331.058 90.88C330.753 91.1286 330.526 91.4583 330.376 91.8693C330.231 92.277 330.158 92.7244 330.158 93.2116C330.158 93.7022 330.231 94.1513 330.376 94.5589C330.526 94.9666 330.753 95.2931 331.058 95.5384C331.366 95.7836 331.754 95.9062 332.221 95.9062ZM338.601 92.4659V97H337.115V89.3636H338.542V90.6065H338.636C338.812 90.2022 339.087 89.8774 339.461 89.6321C339.839 89.3868 340.315 89.2642 340.888 89.2642C341.409 89.2642 341.864 89.3736 342.255 89.5923C342.647 89.8078 342.95 90.1293 343.165 90.5568C343.381 90.9844 343.488 91.513 343.488 92.1428V97H342.002V92.3217C342.002 91.7682 341.858 91.3357 341.569 91.0241C341.281 90.7093 340.885 90.5518 340.381 90.5518C340.036 90.5518 339.73 90.6264 339.461 90.7756C339.196 90.9247 338.986 91.1435 338.83 91.4318C338.678 91.7169 338.601 92.0616 338.601 92.4659ZM348.453 97.1541C347.701 97.1541 347.053 96.9934 346.509 96.6719C345.969 96.3471 345.551 95.8913 345.256 95.3047C344.965 94.7147 344.819 94.0237 344.819 93.2315C344.819 92.4493 344.965 91.7599 345.256 91.1634C345.551 90.5668 345.962 90.1011 346.489 89.7663C347.02 89.4316 347.64 89.2642 348.349 89.2642C348.78 89.2642 349.197 89.3355 349.602 89.478C350.006 89.6205 350.369 89.8442 350.69 90.1491C351.012 90.4541 351.265 90.8501 351.451 91.3374C351.637 91.8213 351.729 92.4096 351.729 93.1023V93.6293H345.659V92.5156H350.273C350.273 92.1245 350.193 91.7782 350.034 91.4766C349.875 91.1716 349.651 90.9313 349.363 90.7557C349.078 90.58 348.743 90.4922 348.359 90.4922C347.941 90.4922 347.577 90.5949 347.265 90.8004C346.957 91.0026 346.718 91.2678 346.549 91.5959C346.383 91.9207 346.301 92.2737 346.301 92.6548V93.5249C346.301 94.0353 346.39 94.4695 346.569 94.8274C346.751 95.1854 347.005 95.4588 347.33 95.6477C347.654 95.8333 348.034 95.9261 348.468 95.9261C348.75 95.9261 349.007 95.8864 349.239 95.8068C349.471 95.724 349.671 95.6013 349.84 95.4389C350.009 95.2765 350.139 95.076 350.228 94.8374L351.635 95.0909C351.522 95.5052 351.32 95.8681 351.029 96.1797C350.74 96.4879 350.377 96.7282 349.94 96.9006C349.506 97.0696 349.01 97.1541 348.453 97.1541Z" fill="black"/>
<path d="M53.9858 116.466V121H52.4993V110.818H53.9659V114.607H54.0604C54.2393 114.196 54.5128 113.869 54.8807 113.627C55.2486 113.385 55.7292 113.264 56.3224 113.264C56.8461 113.264 57.3035 113.372 57.6946 113.587C58.089 113.803 58.3939 114.124 58.6094 114.552C58.8281 114.976 58.9375 115.506 58.9375 116.143V121H57.451V116.322C57.451 115.762 57.3068 115.327 57.0185 115.019C56.7301 114.708 56.3291 114.552 55.8153 114.552C55.464 114.552 55.1491 114.626 54.8707 114.776C54.5956 114.925 54.3786 115.143 54.2195 115.432C54.0637 115.717 53.9858 116.062 53.9858 116.466ZM60.6012 121V113.364H62.0877V121H60.6012ZM61.3519 112.185C61.0934 112.185 60.8713 112.099 60.6857 111.927C60.5034 111.751 60.4122 111.542 60.4122 111.3C60.4122 111.055 60.5034 110.846 60.6857 110.674C60.8713 110.498 61.0934 110.411 61.3519 110.411C61.6104 110.411 61.8308 110.498 62.0131 110.674C62.1987 110.846 62.2915 111.055 62.2915 111.3C62.2915 111.542 62.1987 111.751 62.0131 111.927C61.8308 112.099 61.6104 112.185 61.3519 112.185ZM66.9692 124.023C66.3627 124.023 65.8406 123.943 65.4031 123.784C64.969 123.625 64.6143 123.415 64.3392 123.153C64.0641 122.891 63.8586 122.604 63.7227 122.293L65.0004 121.766C65.0899 121.911 65.2093 122.066 65.3584 122.228C65.5109 122.394 65.7164 122.535 65.9749 122.651C66.2367 122.767 66.5731 122.825 66.9841 122.825C67.5476 122.825 68.0132 122.687 68.3811 122.412C68.749 122.14 68.933 121.706 68.933 121.109V119.608H68.8385C68.749 119.77 68.6198 119.951 68.4507 120.15C68.285 120.349 68.0563 120.521 67.7647 120.667C67.473 120.813 67.0935 120.886 66.6262 120.886C66.0229 120.886 65.4794 120.745 64.9955 120.463C64.5149 120.178 64.1337 119.759 63.852 119.205C63.5736 118.648 63.4344 117.964 63.4344 117.152C63.4344 116.34 63.5719 115.644 63.847 115.064C64.1254 114.484 64.5066 114.04 64.9905 113.732C65.4744 113.42 66.0229 113.264 66.6361 113.264C67.1101 113.264 67.4929 113.344 67.7845 113.503C68.0762 113.659 68.3032 113.841 68.4656 114.05C68.6314 114.259 68.759 114.442 68.8485 114.602H68.9578V113.364H70.4145V121.169C70.4145 121.825 70.262 122.364 69.9571 122.785C69.6522 123.206 69.2396 123.517 68.7192 123.719C68.2022 123.922 67.6188 124.023 66.9692 124.023ZM66.9543 119.653C67.3818 119.653 67.7431 119.553 68.0381 119.354C68.3364 119.152 68.5618 118.864 68.7142 118.489C68.87 118.112 68.9479 117.659 68.9479 117.132C68.9479 116.618 68.8717 116.166 68.7192 115.775C68.5667 115.384 68.343 115.079 68.048 114.86C67.7531 114.638 67.3885 114.527 66.9543 114.527C66.5068 114.527 66.134 114.643 65.8357 114.875C65.5374 115.104 65.312 115.415 65.1595 115.81C65.0104 116.204 64.9358 116.645 64.9358 117.132C64.9358 117.633 65.012 118.072 65.1645 118.45C65.317 118.827 65.5424 119.122 65.8406 119.335C66.1423 119.547 66.5135 119.653 66.9543 119.653ZM73.5746 116.466V121H72.0881V110.818H73.5547V114.607H73.6492C73.8282 114.196 74.1016 113.869 74.4695 113.627C74.8374 113.385 75.318 113.264 75.9113 113.264C76.4349 113.264 76.8923 113.372 77.2834 113.587C77.6778 113.803 77.9828 114.124 78.1982 114.552C78.417 114.976 78.5263 115.506 78.5263 116.143V121H77.0398V116.322C77.0398 115.762 76.8956 115.327 76.6073 115.019C76.3189 114.708 75.9179 114.552 75.4042 114.552C75.0528 114.552 74.738 114.626 74.4596 114.776C74.1845 114.925 73.9674 115.143 73.8083 115.432C73.6525 115.717 73.5746 116.062 73.5746 116.466ZM81.6765 110.818V121H80.19V110.818H81.6765ZM83.3563 121V113.364H84.8428V121H83.3563ZM84.107 112.185C83.8485 112.185 83.6264 112.099 83.4408 111.927C83.2585 111.751 83.1674 111.542 83.1674 111.3C83.1674 111.055 83.2585 110.846 83.4408 110.674C83.6264 110.498 83.8485 110.411 84.107 110.411C84.3656 110.411 84.586 110.498 84.7683 110.674C84.9539 110.846 85.0467 111.055 85.0467 111.3C85.0467 111.542 84.9539 111.751 84.7683 111.927C84.586 112.099 84.3656 112.185 84.107 112.185ZM89.7244 124.023C89.1178 124.023 88.5958 123.943 88.1583 123.784C87.7241 123.625 87.3695 123.415 87.0944 123.153C86.8193 122.891 86.6138 122.604 86.4779 122.293L87.7556 121.766C87.8451 121.911 87.9644 122.066 88.1136 122.228C88.266 122.394 88.4715 122.535 88.73 122.651C88.9919 122.767 89.3283 122.825 89.7393 122.825C90.3027 122.825 90.7684 122.687 91.1363 122.412C91.5042 122.14 91.6881 121.706 91.6881 121.109V119.608H91.5937C91.5042 119.77 91.3749 119.951 91.2059 120.15C91.0402 120.349 90.8115 120.521 90.5198 120.667C90.2281 120.813 89.8486 120.886 89.3813 120.886C88.7781 120.886 88.2345 120.745 87.7506 120.463C87.27 120.178 86.8889 119.759 86.6072 119.205C86.3288 118.648 86.1896 117.964 86.1896 117.152C86.1896 116.34 86.3271 115.644 86.6022 115.064C86.8806 114.484 87.2618 114.04 87.7457 113.732C88.2296 113.42 88.7781 113.264 89.3913 113.264C89.8652 113.264 90.248 113.344 90.5397 113.503C90.8314 113.659 91.0584 113.841 91.2208 114.05C91.3865 114.259 91.5141 114.442 91.6036 114.602H91.713V113.364H93.1697V121.169C93.1697 121.825 93.0172 122.364 92.7123 122.785C92.4074 123.206 91.9947 123.517 91.4744 123.719C90.9573 123.922 90.374 124.023 89.7244 124.023ZM89.7094 119.653C90.137 119.653 90.4983 119.553 90.7932 119.354C91.0915 119.152 91.3169 118.864 91.4694 118.489C91.6252 118.112 91.703 117.659 91.703 117.132C91.703 116.618 91.6268 116.166 91.4744 115.775C91.3219 115.384 91.0982 115.079 90.8032 114.86C90.5082 114.638 90.1436 114.527 89.7094 114.527C89.262 114.527 88.8891 114.643 88.5908 114.875C88.2925 115.104 88.0672 115.415 87.9147 115.81C87.7655 116.204 87.691 116.645 87.691 117.132C87.691 117.633 87.7672 118.072 87.9197 118.45C88.0721 118.827 88.2975 119.122 88.5958 119.335C88.8974 119.547 89.2686 119.653 89.7094 119.653ZM96.3298 116.466V121H94.8433V110.818H96.3099V114.607H96.4044C96.5833 114.196 96.8568 113.869 97.2247 113.627C97.5926 113.385 98.0731 113.264 98.6664 113.264C99.1901 113.264 99.6475 113.372 100.039 113.587C100.433 113.803 100.738 114.124 100.953 114.552C101.172 114.976 101.281 115.506 101.281 116.143V121H99.795V116.322C99.795 115.762 99.6508 115.327 99.3624 115.019C99.0741 114.708 98.6731 114.552 98.1593 114.552C97.808 114.552 97.4931 114.626 97.2147 114.776C96.9396 114.925 96.7225 115.143 96.5634 115.432C96.4077 115.717 96.3298 116.062 96.3298 116.466ZM106.51 113.364V114.557H102.339V113.364H106.51ZM103.457 111.534H104.944V118.758C104.944 119.046 104.987 119.263 105.073 119.409C105.159 119.552 105.27 119.649 105.406 119.702C105.545 119.752 105.696 119.777 105.859 119.777C105.978 119.777 106.082 119.769 106.172 119.752C106.261 119.736 106.331 119.722 106.381 119.712L106.649 120.94C106.563 120.973 106.44 121.007 106.281 121.04C106.122 121.076 105.923 121.096 105.684 121.099C105.293 121.106 104.929 121.036 104.591 120.891C104.253 120.745 103.979 120.519 103.77 120.214C103.562 119.91 103.457 119.527 103.457 119.066V111.534ZM111.043 121.154C110.291 121.154 109.643 120.993 109.099 120.672C108.559 120.347 108.142 119.891 107.847 119.305C107.555 118.715 107.409 118.024 107.409 117.232C107.409 116.449 107.555 115.76 107.847 115.163C108.142 114.567 108.553 114.101 109.08 113.766C109.61 113.432 110.23 113.264 110.939 113.264C111.37 113.264 111.787 113.335 112.192 113.478C112.596 113.621 112.959 113.844 113.281 114.149C113.602 114.454 113.856 114.85 114.041 115.337C114.227 115.821 114.32 116.41 114.32 117.102V117.629H108.249V116.516H112.863C112.863 116.125 112.783 115.778 112.624 115.477C112.465 115.172 112.241 114.931 111.953 114.756C111.668 114.58 111.333 114.492 110.949 114.492C110.531 114.492 110.167 114.595 109.855 114.8C109.547 115.003 109.308 115.268 109.139 115.596C108.973 115.921 108.891 116.274 108.891 116.655V117.525C108.891 118.035 108.98 118.469 109.159 118.827C109.341 119.185 109.595 119.459 109.92 119.648C110.245 119.833 110.624 119.926 111.058 119.926C111.34 119.926 111.597 119.886 111.829 119.807C112.061 119.724 112.261 119.601 112.43 119.439C112.599 119.277 112.729 119.076 112.818 118.837L114.225 119.091C114.112 119.505 113.91 119.868 113.619 120.18C113.33 120.488 112.967 120.728 112.53 120.901C112.096 121.07 111.6 121.154 111.043 121.154ZM118.508 121.149C117.891 121.149 117.341 120.992 116.857 120.677C116.376 120.359 115.999 119.906 115.723 119.32C115.452 118.73 115.316 118.022 115.316 117.197C115.316 116.371 115.453 115.665 115.728 115.079C116.007 114.492 116.388 114.043 116.872 113.732C117.356 113.42 117.904 113.264 118.518 113.264C118.991 113.264 119.373 113.344 119.661 113.503C119.953 113.659 120.178 113.841 120.337 114.05C120.5 114.259 120.625 114.442 120.715 114.602H120.804V110.818H122.291V121H120.839V119.812H120.715C120.625 119.974 120.496 120.16 120.327 120.369C120.161 120.577 119.933 120.76 119.641 120.915C119.349 121.071 118.972 121.149 118.508 121.149ZM118.836 119.881C119.263 119.881 119.625 119.769 119.919 119.543C120.218 119.315 120.443 118.998 120.596 118.594C120.751 118.189 120.829 117.719 120.829 117.182C120.829 116.652 120.753 116.187 120.601 115.79C120.448 115.392 120.224 115.082 119.929 114.86C119.634 114.638 119.27 114.527 118.836 114.527C118.388 114.527 118.015 114.643 117.717 114.875C117.419 115.107 117.193 115.424 117.041 115.825C116.892 116.226 116.817 116.678 116.817 117.182C116.817 117.692 116.893 118.151 117.046 118.559C117.198 118.967 117.424 119.29 117.722 119.528C118.024 119.764 118.395 119.881 118.836 119.881Z" fill="black"/>
<path d="M127.999 121V113.364H129.486V121H127.999ZM128.75 112.185C128.491 112.185 128.269 112.099 128.084 111.927C127.902 111.751 127.81 111.542 127.81 111.3C127.81 111.055 127.902 110.846 128.084 110.674C128.269 110.498 128.491 110.411 128.75 110.411C129.009 110.411 129.229 110.498 129.411 110.674C129.597 110.846 129.69 111.055 129.69 111.3C129.69 111.542 129.597 111.751 129.411 111.927C129.229 112.099 129.009 112.185 128.75 112.185ZM132.652 116.466V121H131.166V113.364H132.592V114.607H132.687C132.863 114.202 133.138 113.877 133.512 113.632C133.89 113.387 134.366 113.264 134.939 113.264C135.459 113.264 135.915 113.374 136.306 113.592C136.697 113.808 137.001 114.129 137.216 114.557C137.431 114.984 137.539 115.513 137.539 116.143V121H136.053V116.322C136.053 115.768 135.909 115.336 135.62 115.024C135.332 114.709 134.936 114.552 134.432 114.552C134.087 114.552 133.781 114.626 133.512 114.776C133.247 114.925 133.037 115.143 132.881 115.432C132.728 115.717 132.652 116.062 132.652 116.466Z" fill="black"/>
<rect x="142.5" y="105" width="184" height="22" rx="6" fill="#F5F5F5"/>
<path d="M155.25 110.167H150C149.691 110.167 149.394 110.29 149.175 110.508C148.956 110.727 148.833 111.024 148.833 111.333V120.667C148.833 120.976 148.956 121.273 149.175 121.492C149.394 121.71 149.691 121.833 150 121.833H157C157.309 121.833 157.606 121.71 157.825 121.492C158.044 121.273 158.167 120.976 158.167 120.667V113.083L155.25 110.167Z" stroke="#666666" stroke-width="1.16667" stroke-linecap="round" stroke-linejoin="round"/>
<path d="M154.667 110.167V112.5C154.667 112.809 154.79 113.106 155.008 113.325C155.227 113.544 155.524 113.667 155.833 113.667H158.167" stroke="#666666" stroke-width="1.16667" stroke-linecap="round" stroke-linejoin="round"/>
<path d="M152.333 114.25H151.167" stroke="#666666" stroke-width="1.16667" stroke-linecap="round" stroke-linejoin="round"/>
<path d="M155.833 116.583H151.167" stroke="#666666" stroke-width="1.16667" stroke-linecap="round" stroke-linejoin="round"/>
<path d="M155.833 118.917H151.167" stroke="#666666" stroke-width="1.16667" stroke-linecap="round" stroke-linejoin="round"/>
<path d="M166.479 121H164.848L168.512 110.818H170.287L173.951 121H172.32L169.442 112.668H169.362L166.479 121ZM166.752 117.013H172.042V118.305H166.752V117.013ZM178.068 113.364V114.557H173.897V113.364H178.068ZM175.016 111.534H176.502V118.758C176.502 119.046 176.545 119.263 176.631 119.409C176.718 119.552 176.829 119.649 176.964 119.702C177.104 119.752 177.254 119.777 177.417 119.777C177.536 119.777 177.641 119.769 177.73 119.752C177.82 119.736 177.889 119.722 177.939 119.712L178.207 120.94C178.121 120.973 177.999 121.007 177.839 121.04C177.68 121.076 177.481 121.096 177.243 121.099C176.852 121.106 176.487 121.036 176.149 120.891C175.811 120.745 175.538 120.519 175.329 120.214C175.12 119.91 175.016 119.527 175.016 119.066V111.534ZM182.957 113.364V114.557H178.786V113.364H182.957ZM179.905 111.534H181.391V118.758C181.391 119.046 181.434 119.263 181.52 119.409C181.607 119.552 181.718 119.649 181.853 119.702C181.993 119.752 182.143 119.777 182.306 119.777C182.425 119.777 182.53 119.769 182.619 119.752C182.709 119.736 182.778 119.722 182.828 119.712L183.096 120.94C183.01 120.973 182.888 121.007 182.728 121.04C182.569 121.076 182.37 121.096 182.132 121.099C181.741 121.106 181.376 121.036 181.038 120.891C180.7 120.745 180.427 120.519 180.218 120.214C180.009 119.91 179.905 119.527 179.905 119.066V111.534ZM187.491 121.154C186.738 121.154 186.09 120.993 185.547 120.672C185.007 120.347 184.589 119.891 184.294 119.305C184.002 118.715 183.856 118.024 183.856 117.232C183.856 116.449 184.002 115.76 184.294 115.163C184.589 114.567 185 114.101 185.527 113.766C186.057 113.432 186.677 113.264 187.386 113.264C187.817 113.264 188.235 113.335 188.639 113.478C189.043 113.621 189.406 113.844 189.728 114.149C190.049 114.454 190.303 114.85 190.489 115.337C190.674 115.821 190.767 116.41 190.767 117.102V117.629H184.697V116.516H189.31C189.31 116.125 189.231 115.778 189.072 115.477C188.913 115.172 188.689 114.931 188.4 114.756C188.115 114.58 187.781 114.492 187.396 114.492C186.979 114.492 186.614 114.595 186.302 114.8C185.994 115.003 185.756 115.268 185.587 115.596C185.421 115.921 185.338 116.274 185.338 116.655V117.525C185.338 118.035 185.427 118.469 185.606 118.827C185.789 119.185 186.042 119.459 186.367 119.648C186.692 119.833 187.071 119.926 187.506 119.926C187.787 119.926 188.044 119.886 188.276 119.807C188.508 119.724 188.709 119.601 188.878 119.439C189.047 119.277 189.176 119.076 189.265 118.837L190.672 119.091C190.56 119.505 190.358 119.868 190.066 120.18C189.778 120.488 189.415 120.728 188.977 120.901C188.543 121.07 188.047 121.154 187.491 121.154ZM193.583 116.466V121H192.096V113.364H193.523V114.607H193.618C193.793 114.202 194.068 113.877 194.443 113.632C194.821 113.387 195.296 113.264 195.87 113.264C196.39 113.264 196.846 113.374 197.237 113.592C197.628 113.808 197.931 114.129 198.147 114.557C198.362 114.984 198.47 115.513 198.47 116.143V121H196.983V116.322C196.983 115.768 196.839 115.336 196.551 115.024C196.262 114.709 195.866 114.552 195.363 114.552C195.018 114.552 194.711 114.626 194.443 114.776C194.178 114.925 193.967 115.143 193.811 115.432C193.659 115.717 193.583 116.062 193.583 116.466ZM203.708 113.364V114.557H199.537V113.364H203.708ZM200.656 111.534H202.142V118.758C202.142 119.046 202.185 119.263 202.271 119.409C202.357 119.552 202.468 119.649 202.604 119.702C202.744 119.752 202.894 119.777 203.057 119.777C203.176 119.777 203.281 119.769 203.37 119.752C203.459 119.736 203.529 119.722 203.579 119.712L203.847 120.94C203.761 120.973 203.638 121.007 203.479 121.04C203.32 121.076 203.121 121.096 202.883 121.099C202.492 121.106 202.127 121.036 201.789 120.891C201.451 120.745 201.178 120.519 200.969 120.214C200.76 119.91 200.656 119.527 200.656 119.066V111.534ZM205.032 121V113.364H206.519V121H205.032ZM205.783 112.185C205.525 112.185 205.303 112.099 205.117 111.927C204.935 111.751 204.843 111.542 204.843 111.3C204.843 111.055 204.935 110.846 205.117 110.674C205.303 110.498 205.525 110.411 205.783 110.411C206.042 110.411 206.262 110.498 206.444 110.674C206.63 110.846 206.723 111.055 206.723 111.3C206.723 111.542 206.63 111.751 206.444 111.927C206.262 112.099 206.042 112.185 205.783 112.185ZM211.415 121.154C210.699 121.154 210.075 120.99 209.541 120.662C209.007 120.334 208.593 119.875 208.298 119.285C208.003 118.695 207.856 118.005 207.856 117.217C207.856 116.424 208.003 115.732 208.298 115.138C208.593 114.545 209.007 114.085 209.541 113.756C210.075 113.428 210.699 113.264 211.415 113.264C212.131 113.264 212.756 113.428 213.29 113.756C213.823 114.085 214.238 114.545 214.533 115.138C214.828 115.732 214.975 116.424 214.975 117.217C214.975 118.005 214.828 118.695 214.533 119.285C214.238 119.875 213.823 120.334 213.29 120.662C212.756 120.99 212.131 121.154 211.415 121.154ZM211.42 119.906C211.884 119.906 212.269 119.784 212.574 119.538C212.879 119.293 213.104 118.967 213.25 118.559C213.399 118.151 213.474 117.702 213.474 117.212C213.474 116.724 213.399 116.277 213.25 115.869C213.104 115.458 212.879 115.129 212.574 114.88C212.269 114.631 211.884 114.507 211.42 114.507C210.953 114.507 210.565 114.631 210.257 114.88C209.952 115.129 209.725 115.458 209.576 115.869C209.43 116.277 209.357 116.724 209.357 117.212C209.357 117.702 209.43 118.151 209.576 118.559C209.725 118.967 209.952 119.293 210.257 119.538C210.565 119.784 210.953 119.906 211.42 119.906ZM217.801 116.466V121H216.314V113.364H217.741V114.607H217.836C218.011 114.202 218.286 113.877 218.661 113.632C219.039 113.387 219.514 113.264 220.088 113.264C220.608 113.264 221.064 113.374 221.455 113.592C221.846 113.808 222.149 114.129 222.365 114.557C222.58 114.984 222.688 115.513 222.688 116.143V121H221.201V116.322C221.201 115.768 221.057 115.336 220.769 115.024C220.48 114.709 220.084 114.552 219.581 114.552C219.236 114.552 218.929 114.626 218.661 114.776C218.396 114.925 218.185 115.143 218.029 115.432C217.877 115.717 217.801 116.062 217.801 116.466ZM229.402 110.818V121H227.866V110.818H229.402ZM236.922 115.228L235.575 115.467C235.519 115.294 235.429 115.13 235.307 114.974C235.187 114.819 235.025 114.691 234.819 114.592C234.614 114.492 234.357 114.442 234.049 114.442C233.628 114.442 233.276 114.537 232.995 114.726C232.713 114.911 232.572 115.152 232.572 115.447C232.572 115.702 232.667 115.907 232.856 116.063C233.044 116.219 233.349 116.347 233.77 116.446L234.983 116.724C235.686 116.887 236.21 117.137 236.554 117.475C236.899 117.813 237.071 118.252 237.071 118.793C237.071 119.25 236.939 119.658 236.674 120.016C236.412 120.37 236.046 120.649 235.575 120.851C235.108 121.053 234.566 121.154 233.949 121.154C233.094 121.154 232.396 120.972 231.856 120.607C231.316 120.239 230.985 119.717 230.862 119.041L232.299 118.822C232.388 119.197 232.572 119.48 232.851 119.673C233.129 119.862 233.492 119.956 233.939 119.956C234.427 119.956 234.816 119.855 235.108 119.653C235.399 119.447 235.545 119.197 235.545 118.902C235.545 118.663 235.456 118.463 235.277 118.3C235.101 118.138 234.831 118.015 234.466 117.933L233.174 117.649C232.461 117.487 231.934 117.228 231.593 116.874C231.255 116.519 231.086 116.07 231.086 115.526C231.086 115.076 231.212 114.681 231.463 114.343C231.715 114.005 232.063 113.741 232.508 113.553C232.952 113.36 233.46 113.264 234.034 113.264C234.859 113.264 235.509 113.443 235.983 113.801C236.457 114.156 236.77 114.631 236.922 115.228ZM242.75 121H241.12L244.784 110.818H246.559L250.223 121H248.592L245.713 112.668H245.634L242.75 121ZM243.024 117.013H248.314V118.305H243.024V117.013ZM252.74 110.818V121H251.254V110.818H252.74ZM255.906 110.818V121H254.42V110.818H255.906ZM260.305 110.818H262.05L264.71 115.447H264.819L267.479 110.818H269.224L265.53 117.003V121H263.999V117.003L260.305 110.818ZM272.194 121.154C271.478 121.154 270.854 120.99 270.32 120.662C269.786 120.334 269.372 119.875 269.077 119.285C268.782 118.695 268.635 118.005 268.635 117.217C268.635 116.424 268.782 115.732 269.077 115.138C269.372 114.545 269.786 114.085 270.32 113.756C270.854 113.428 271.478 113.264 272.194 113.264C272.91 113.264 273.535 113.428 274.068 113.756C274.602 114.085 275.016 114.545 275.311 115.138C275.606 115.732 275.754 116.424 275.754 117.217C275.754 118.005 275.606 118.695 275.311 119.285C275.016 119.875 274.602 120.334 274.068 120.662C273.535 120.99 272.91 121.154 272.194 121.154ZM272.199 119.906C272.663 119.906 273.048 119.784 273.353 119.538C273.657 119.293 273.883 118.967 274.029 118.559C274.178 118.151 274.252 117.702 274.252 117.212C274.252 116.724 274.178 116.277 274.029 115.869C273.883 115.458 273.657 115.129 273.353 114.88C273.048 114.631 272.663 114.507 272.199 114.507C271.732 114.507 271.344 114.631 271.036 114.88C270.731 115.129 270.504 115.458 270.355 115.869C270.209 116.277 270.136 116.724 270.136 117.212C270.136 117.702 270.209 118.151 270.355 118.559C270.504 118.967 270.731 119.293 271.036 119.538C271.344 119.784 271.732 119.906 272.199 119.906ZM281.93 117.833V113.364H283.422V121H281.96V119.678H281.881C281.705 120.085 281.423 120.425 281.036 120.697C280.651 120.965 280.172 121.099 279.599 121.099C279.108 121.099 278.674 120.992 278.296 120.776C277.922 120.558 277.627 120.234 277.411 119.807C277.199 119.379 277.093 118.851 277.093 118.221V113.364H278.58V118.042C278.58 118.562 278.724 118.977 279.012 119.285C279.301 119.593 279.675 119.747 280.136 119.747C280.414 119.747 280.691 119.678 280.966 119.538C281.244 119.399 281.475 119.189 281.657 118.907C281.843 118.625 281.934 118.267 281.93 117.833ZM296.822 110.818V121H295.41L290.234 113.533H290.14V121H288.604V110.818H290.026L295.206 118.295H295.3V110.818H296.822ZM301.915 121.154C301.162 121.154 300.514 120.993 299.971 120.672C299.43 120.347 299.013 119.891 298.718 119.305C298.426 118.715 298.28 118.024 298.28 117.232C298.28 116.449 298.426 115.76 298.718 115.163C299.013 114.567 299.424 114.101 299.951 113.766C300.481 113.432 301.101 113.264 301.81 113.264C302.241 113.264 302.659 113.335 303.063 113.478C303.467 113.621 303.83 113.844 304.152 114.149C304.473 114.454 304.727 114.85 304.912 115.337C305.098 115.821 305.191 116.41 305.191 117.102V117.629H299.121V116.516H303.734C303.734 116.125 303.655 115.778 303.496 115.477C303.336 115.172 303.113 114.931 302.824 114.756C302.539 114.58 302.205 114.492 301.82 114.492C301.402 114.492 301.038 114.595 300.726 114.8C300.418 115.003 300.179 115.268 300.01 115.596C299.845 115.921 299.762 116.274 299.762 116.655V117.525C299.762 118.035 299.851 118.469 300.03 118.827C300.213 119.185 300.466 119.459 300.791 119.648C301.116 119.833 301.495 119.926 301.929 119.926C302.211 119.926 302.468 119.886 302.7 119.807C302.932 119.724 303.133 119.601 303.302 119.439C303.471 119.277 303.6 119.076 303.689 118.837L305.096 119.091C304.984 119.505 304.782 119.868 304.49 120.18C304.201 120.488 303.839 120.728 303.401 120.901C302.967 121.07 302.471 121.154 301.915 121.154ZM309.811 121.154C309.059 121.154 308.411 120.993 307.867 120.672C307.327 120.347 306.91 119.891 306.615 119.305C306.323 118.715 306.177 118.024 306.177 117.232C306.177 116.449 306.323 115.76 306.615 115.163C306.91 114.567 307.321 114.101 307.848 113.766C308.378 113.432 308.998 113.264 309.707 113.264C310.138 113.264 310.555 113.335 310.96 113.478C311.364 113.621 311.727 113.844 312.049 114.149C312.37 114.454 312.624 114.85 312.809 115.337C312.995 115.821 313.088 116.41 313.088 117.102V117.629H307.017V116.516H311.631C311.631 116.125 311.551 115.778 311.392 115.477C311.233 115.172 311.009 114.931 310.721 114.756C310.436 114.58 310.101 114.492 309.717 114.492C309.299 114.492 308.935 114.595 308.623 114.8C308.315 115.003 308.076 115.268 307.907 115.596C307.742 115.921 307.659 116.274 307.659 116.655V117.525C307.659 118.035 307.748 118.469 307.927 118.827C308.109 119.185 308.363 119.459 308.688 119.648C309.013 119.833 309.392 119.926 309.826 119.926C310.108 119.926 310.365 119.886 310.597 119.807C310.829 119.724 311.029 119.601 311.198 119.439C311.367 119.277 311.497 119.076 311.586 118.837L312.993 119.091C312.88 119.505 312.678 119.868 312.387 120.18C312.098 120.488 311.735 120.728 311.298 120.901C310.864 121.07 310.368 121.154 309.811 121.154ZM317.276 121.149C316.659 121.149 316.109 120.992 315.625 120.677C315.144 120.359 314.767 119.906 314.492 119.32C314.22 118.73 314.084 118.022 314.084 117.197C314.084 116.371 314.221 115.665 314.496 115.079C314.775 114.492 315.156 114.043 315.64 113.732C316.124 113.42 316.672 113.264 317.286 113.264C317.76 113.264 318.141 113.344 318.429 113.503C318.721 113.659 318.946 113.841 319.105 114.05C319.268 114.259 319.394 114.442 319.483 114.602H319.572V110.818H321.059V121H319.607V119.812H319.483C319.394 119.974 319.264 120.16 319.095 120.369C318.93 120.577 318.701 120.76 318.409 120.915C318.117 121.071 317.74 121.149 317.276 121.149ZM317.604 119.881C318.031 119.881 318.393 119.769 318.688 119.543C318.986 119.315 319.211 118.998 319.364 118.594C319.519 118.189 319.597 117.719 319.597 117.182C319.597 116.652 319.521 116.187 319.369 115.79C319.216 115.392 318.992 115.082 318.697 114.86C318.403 114.638 318.038 114.527 317.604 114.527C317.156 114.527 316.783 114.643 316.485 114.875C316.187 115.107 315.961 115.424 315.809 115.825C315.66 116.226 315.585 116.678 315.585 117.182C315.585 117.692 315.662 118.151 315.814 118.559C315.966 118.967 316.192 119.29 316.49 119.528C316.792 119.764 317.163 119.881 317.604 119.881Z" fill="#666666"/>
<path d="M332.625 118.072V117.977C332.632 117.361 332.693 116.87 332.809 116.506C332.928 116.141 333.097 115.846 333.316 115.621C333.535 115.395 333.798 115.19 334.107 115.004C334.305 114.878 334.484 114.737 334.643 114.582C334.803 114.426 334.929 114.247 335.021 114.045C335.114 113.843 335.161 113.619 335.161 113.374C335.161 113.079 335.091 112.823 334.952 112.608C334.812 112.393 334.627 112.227 334.395 112.111C334.166 111.991 333.911 111.932 333.629 111.932C333.374 111.932 333.13 111.985 332.898 112.091C332.666 112.197 332.474 112.363 332.322 112.588C332.169 112.81 332.081 113.097 332.058 113.448H330.547C330.57 112.852 330.721 112.348 330.999 111.937C331.278 111.522 331.646 111.209 332.103 110.997C332.564 110.785 333.072 110.679 333.629 110.679C334.239 110.679 334.773 110.793 335.23 111.022C335.688 111.247 336.042 111.564 336.294 111.972C336.549 112.376 336.677 112.848 336.677 113.388C336.677 113.76 336.619 114.094 336.503 114.393C336.387 114.688 336.221 114.951 336.006 115.183C335.794 115.415 335.538 115.621 335.24 115.8C334.958 115.975 334.73 116.158 334.554 116.347C334.382 116.536 334.256 116.759 334.176 117.018C334.097 117.276 334.054 117.596 334.047 117.977V118.072H332.625ZM333.376 121.094C333.104 121.094 332.87 120.998 332.675 120.806C332.479 120.611 332.381 120.375 332.381 120.1C332.381 119.828 332.479 119.596 332.675 119.404C332.87 119.209 333.104 119.111 333.376 119.111C333.644 119.111 333.876 119.209 334.072 119.404C334.271 119.596 334.37 119.828 334.37 120.1C334.37 120.282 334.324 120.45 334.231 120.602C334.141 120.751 334.022 120.871 333.873 120.96C333.724 121.05 333.558 121.094 333.376 121.094Z" fill="black"/>
<rect x="49.5" y="147" width="91" height="28" rx="8" fill="#017AFF" fill-opacity="0.1"/>
<path d="M66.5 163.333C67.7887 163.333 68.8333 162.289 68.8333 161C68.8333 159.711 67.7887 158.667 66.5 158.667C65.2113 158.667 64.1667 159.711 64.1667 161C64.1667 162.289 65.2113 163.333 66.5 163.333Z" stroke="#007AFF" stroke-width="1.16667" stroke-linecap="round" stroke-linejoin="round"/>
<path d="M68.8333 158.667V161.583C68.8333 162.047 69.0177 162.493 69.3459 162.821C69.6741 163.149 70.1192 163.333 70.5833 163.333C71.0475 163.333 71.4926 163.149 71.8208 162.821C72.149 162.493 72.3333 162.047 72.3333 161.583V161C72.3333 159.686 71.8896 158.41 71.0741 157.38C70.2587 156.349 69.1191 155.625 67.8402 155.323C66.5613 155.021 65.2179 155.16 64.0277 155.716C62.8375 156.273 61.8702 157.216 61.2825 158.391C60.6948 159.567 60.5212 160.906 60.7898 162.192C61.0584 163.479 61.7534 164.637 62.7623 165.479C63.7712 166.321 65.0348 166.797 66.3484 166.831C67.6621 166.865 68.9487 166.455 70 165.667" stroke="#007AFF" stroke-width="1.16667" stroke-linecap="round" stroke-linejoin="round"/>
<path d="M78.7554 155.818H80.6197L83.8612 163.733H83.9805L87.222 155.818H89.0863V166H87.6247V158.632H87.5302L84.5274 165.985H83.3143L80.3115 158.627H80.217V166H78.7554V155.818ZM94.1717 166.154C93.4193 166.154 92.7714 165.993 92.2278 165.672C91.6876 165.347 91.2699 164.891 90.975 164.305C90.6833 163.715 90.5375 163.024 90.5375 162.232C90.5375 161.449 90.6833 160.76 90.975 160.163C91.2699 159.567 91.6809 159.101 92.2079 158.766C92.7382 158.432 93.358 158.264 94.0673 158.264C94.4982 158.264 94.9158 158.335 95.3201 158.478C95.7245 158.621 96.0874 158.844 96.4089 159.149C96.7304 159.454 96.984 159.85 97.1696 160.337C97.3552 160.821 97.448 161.41 97.448 162.102V162.629H91.3777V161.516H95.9913C95.9913 161.125 95.9118 160.778 95.7527 160.477C95.5936 160.172 95.3698 159.931 95.0815 159.756C94.7965 159.58 94.4617 159.492 94.0772 159.492C93.6596 159.492 93.295 159.595 92.9835 159.8C92.6752 160.003 92.4366 160.268 92.2676 160.596C92.1019 160.921 92.019 161.274 92.019 161.655V162.525C92.019 163.035 92.1085 163.469 92.2875 163.827C92.4698 164.185 92.7233 164.459 93.0481 164.648C93.3729 164.833 93.7524 164.926 94.1866 164.926C94.4683 164.926 94.7252 164.886 94.9572 164.807C95.1892 164.724 95.3897 164.601 95.5588 164.439C95.7278 164.277 95.8571 164.076 95.9466 163.837L97.3535 164.091C97.2408 164.505 97.0386 164.868 96.747 165.18C96.4586 165.488 96.0957 165.728 95.6582 165.901C95.224 166.07 94.7285 166.154 94.1717 166.154ZM100.264 161.466V166H98.7773V158.364H100.204V159.607H100.299C100.474 159.202 100.749 158.877 101.124 158.632C101.502 158.387 101.977 158.264 102.551 158.264C103.071 158.264 103.527 158.374 103.918 158.592C104.309 158.808 104.612 159.129 104.828 159.557C105.043 159.984 105.151 160.513 105.151 161.143V166H103.664V161.322C103.664 160.768 103.52 160.336 103.232 160.024C102.943 159.709 102.547 159.552 102.044 159.552C101.699 159.552 101.392 159.626 101.124 159.776C100.859 159.925 100.648 160.143 100.492 160.432C100.34 160.717 100.264 161.062 100.264 161.466ZM110.389 158.364V159.557H106.218V158.364H110.389ZM107.337 156.534H108.823V163.758C108.823 164.046 108.866 164.263 108.952 164.409C109.039 164.552 109.15 164.649 109.285 164.702C109.425 164.752 109.575 164.777 109.738 164.777C109.857 164.777 109.962 164.769 110.051 164.752C110.141 164.736 110.21 164.722 110.26 164.712L110.528 165.94C110.442 165.973 110.32 166.007 110.16 166.04C110.001 166.076 109.802 166.096 109.564 166.099C109.173 166.106 108.808 166.036 108.47 165.891C108.132 165.745 107.859 165.519 107.65 165.214C107.441 164.91 107.337 164.527 107.337 164.066V156.534ZM111.713 166V158.364H113.2V166H111.713ZM112.464 157.185C112.206 157.185 111.984 157.099 111.798 156.927C111.616 156.751 111.525 156.542 111.525 156.3C111.525 156.055 111.616 155.846 111.798 155.674C111.984 155.498 112.206 155.411 112.464 155.411C112.723 155.411 112.943 155.498 113.125 155.674C113.311 155.846 113.404 156.055 113.404 156.3C113.404 156.542 113.311 156.751 113.125 156.927C112.943 157.099 112.723 157.185 112.464 157.185ZM118.096 166.154C117.381 166.154 116.756 165.99 116.222 165.662C115.689 165.334 115.274 164.875 114.979 164.285C114.684 163.695 114.537 163.005 114.537 162.217C114.537 161.424 114.684 160.732 114.979 160.138C115.274 159.545 115.689 159.085 116.222 158.756C116.756 158.428 117.381 158.264 118.096 158.264C118.812 158.264 119.437 158.428 119.971 158.756C120.504 159.085 120.919 159.545 121.214 160.138C121.509 160.732 121.656 161.424 121.656 162.217C121.656 163.005 121.509 163.695 121.214 164.285C120.919 164.875 120.504 165.334 119.971 165.662C119.437 165.99 118.812 166.154 118.096 166.154ZM118.101 164.906C118.565 164.906 118.95 164.784 119.255 164.538C119.56 164.293 119.785 163.967 119.931 163.559C120.08 163.151 120.155 162.702 120.155 162.212C120.155 161.724 120.08 161.277 119.931 160.869C119.785 160.458 119.56 160.129 119.255 159.88C118.95 159.631 118.565 159.507 118.101 159.507C117.634 159.507 117.246 159.631 116.938 159.88C116.633 160.129 116.406 160.458 116.257 160.869C116.111 161.277 116.038 161.724 116.038 162.212C116.038 162.702 116.111 163.151 116.257 163.559C116.406 163.967 116.633 164.293 116.938 164.538C117.246 164.784 117.634 164.906 118.101 164.906ZM124.482 161.466V166H122.995V158.364H124.422V159.607H124.517C124.692 159.202 124.967 158.877 125.342 158.632C125.72 158.387 126.195 158.264 126.769 158.264C127.289 158.264 127.745 158.374 128.136 158.592C128.527 158.808 128.83 159.129 129.046 159.557C129.261 159.984 129.369 160.513 129.369 161.143V166H127.882V161.322C127.882 160.768 127.738 160.336 127.45 160.024C127.162 159.709 126.765 159.552 126.262 159.552C125.917 159.552 125.61 159.626 125.342 159.776C125.077 159.925 124.866 160.143 124.711 160.432C124.558 160.717 124.482 161.062 124.482 161.466Z" fill="#007AFF"/>
<rect x="328.5" y="147" width="28" height="28" rx="14" fill="#007AFF"/>
<path d="M337.833 161L342.5 156.333L347.167 161" stroke="white" stroke-width="1.66667" stroke-linecap="round" stroke-linejoin="round"/>
<path d="M342.5 165.667V156.333" stroke="white" stroke-width="1.66667" stroke-linecap="round" stroke-linejoin="round"/>
</svg>
