<?xml version="1.0" encoding="utf-8"?>
<svg xmlns="http://www.w3.org/2000/svg" width="487" height="138" viewBox="0 0 487 138" fill="none">
<g clip-path="url(#clip0_380_132)">
<path d="M432.756 137.311C424.791 137.311 418.175 135.963 412.908 133.265C407.64 130.567 403.722 126.97 401.153 122.473C398.583 117.977 397.299 113.095 397.299 107.828C397.299 101.661 398.84 96.3304 401.924 91.8344C405.135 87.3374 409.824 83.8694 415.991 81.4284C422.157 78.8584 429.737 77.5734 438.73 77.5734H463.203C463.203 72.4354 462.497 68.1954 461.083 64.8554C459.67 61.3874 457.486 58.8174 454.532 57.1474C451.577 55.4774 447.787 54.6424 443.162 54.6424C437.895 54.6424 433.398 55.8624 429.673 58.3034C425.947 60.6164 423.635 64.2134 422.736 69.0954H399.997C400.767 62.1574 403.08 56.2484 406.934 51.3654C410.788 46.3554 415.862 42.5024 422.157 39.8044C428.581 36.9774 435.582 35.5644 443.162 35.5644C452.283 35.5644 460.056 37.1704 466.479 40.3824C472.903 43.4654 477.784 47.9624 481.125 53.8724C484.593 59.6524 486.327 66.6544 486.327 74.8764V134.999H466.672L464.359 119.39C463.075 121.959 461.405 124.336 459.349 126.52C457.422 128.704 455.174 130.631 452.605 132.301C450.035 133.843 447.08 135.063 443.74 135.963C440.528 136.862 436.867 137.311 432.756 137.311ZM437.959 119.005C441.685 119.005 444.961 118.362 447.787 117.078C450.742 115.664 453.247 113.737 455.302 111.297C457.486 108.727 459.156 105.901 460.313 102.818C461.469 99.7344 462.24 96.4584 462.625 92.9904V92.6044H441.235C436.739 92.6044 433.013 93.1824 430.058 94.3394C427.103 95.3664 424.984 96.9094 423.699 98.9644C422.414 101.019 421.772 103.396 421.772 106.094C421.772 108.791 422.414 111.104 423.699 113.031C424.984 114.958 426.847 116.435 429.287 117.463C431.728 118.491 434.619 119.005 437.959 119.005ZM335.352 134.999V37.8774H355.971L358.091 55.9914C360.404 51.7514 363.294 48.1544 366.763 45.2004C370.231 42.1164 374.278 39.7404 378.903 38.0704C383.656 36.4004 388.859 35.5644 394.512 35.5644V60.0394H386.419C382.564 60.0394 378.903 60.5524 375.434 61.5804C371.966 62.4804 368.947 64.0214 366.377 66.2054C363.936 68.2614 362.009 71.1514 360.596 74.8774C359.183 78.4744 358.477 83.0344 358.477 88.5594V134.999H335.352ZM268.635 137.311C260.67 137.311 254.054 135.963 248.786 133.265C243.519 130.567 239.601 126.97 237.032 122.473C234.462 117.977 233.178 113.095 233.178 107.828C233.178 101.661 234.719 96.3304 237.802 91.8344C241.014 87.3374 245.703 83.8694 251.87 81.4284C258.036 78.8584 265.616 77.5734 274.609 77.5734H299.082C299.082 72.4354 298.375 68.1954 296.962 64.8554C295.549 61.3874 293.365 58.8174 290.41 57.1474C287.456 55.4774 283.666 54.6424 279.041 54.6424C273.774 54.6424 269.277 55.8624 265.552 58.3034C261.826 60.6164 259.514 64.2134 258.614 69.0954H235.875C236.646 62.1574 238.959 56.2484 242.813 51.3654C246.667 46.3554 251.741 42.5024 258.036 39.8044C264.46 36.9774 271.461 35.5644 279.041 35.5644C288.162 35.5644 295.934 37.1704 302.358 40.3824C308.781 43.4654 313.663 47.9624 317.003 53.8724C320.472 59.6524 322.206 66.6544 322.206 74.8764V134.999H302.551L300.238 119.39C298.953 121.959 297.283 124.336 295.228 126.52C293.301 128.704 291.053 130.631 288.483 132.301C285.914 133.843 282.959 135.063 279.619 135.963C276.407 136.862 272.746 137.311 268.635 137.311ZM273.838 119.005C277.563 119.005 280.839 118.362 283.666 117.078C286.62 115.664 289.126 113.737 291.181 111.297C293.365 108.727 295.035 105.901 296.191 102.818C297.348 99.7344 298.118 96.4584 298.504 92.9904V92.6044H277.114C272.617 92.6044 268.892 93.1824 265.937 94.3394C262.982 95.3664 260.863 96.9094 259.578 98.9644C258.293 101.019 257.651 103.396 257.651 106.094C257.651 108.791 258.293 111.104 259.578 113.031C260.863 114.958 262.725 116.435 265.166 117.463C267.607 118.491 270.498 119.005 273.838 119.005ZM131.524 134.999V37.8774H151.95L153.685 54.0644C156.639 48.4114 160.879 43.9144 166.403 40.5744C171.927 37.2344 178.479 35.5644 186.059 35.5644C193.895 35.5644 200.576 37.2344 206.1 40.5744C211.624 43.7864 215.864 48.5404 218.818 54.8344C221.902 61.1304 223.443 68.9664 223.443 78.3444V134.999H200.319V80.4644C200.319 72.3714 198.52 66.1404 194.923 61.7724C191.326 57.4044 185.995 55.2204 178.929 55.2204C174.304 55.2204 170.129 56.3124 166.403 58.4964C162.806 60.6804 159.915 63.8924 157.731 68.1314C155.676 72.2424 154.648 77.2524 154.648 83.1614V134.999H131.524ZM0.816406 134.999L50.1484 0.107422H75.9704L125.302 134.999H100.828L62.8664 27.0854L24.9034 134.999H0.816406ZM22.7844 103.203L28.9504 84.8964H95.4334L101.599 103.203H22.7844Z" fill="white"/>
</g>
<defs>
<clipPath id="clip0_380_132">
<rect width="487" height="138" fill="white"/>
</clipPath>
</defs>
</svg>